<svg width="28" height="28" viewBox="0 0 28 28" fill="none" xmlns="http://www.w3.org/2000/svg">
<path d="M25.6666 14C25.6666 20.4433 20.4433 25.6666 14 25.6666M25.6666 14C25.6666 7.55666 20.4433 2.33331 14 2.33331M25.6666 14H2.33331M14 25.6666C7.55666 25.6666 2.33331 20.4433 2.33331 14M14 25.6666C16.9181 22.4719 18.5765 18.3259 18.6666 14C18.5765 9.67402 16.9181 5.52806 14 2.33331M14 25.6666C11.0818 22.4719 9.42343 18.3259 9.33331 14C9.42343 9.67402 11.0818 5.52806 14 2.33331M2.33331 14C2.33331 7.55666 7.55666 2.33331 14 2.33331" stroke="#16122F" stroke-width="2" stroke-linecap="round" stroke-linejoin="round"/>
</svg>
