<svg width="28" height="28" viewBox="0 0 28 28" fill="none" xmlns="http://www.w3.org/2000/svg">
<path d="M24.3133 5.37851C23.7174 4.78235 23.0099 4.30943 22.2312 3.98677C21.4525 3.66412 20.6179 3.49805 19.775 3.49805C18.9321 3.49805 18.0975 3.66412 17.3187 3.98677C16.54 4.30943 15.8325 4.78235 15.2367 5.37851L14 6.61518L12.7633 5.37851C11.5597 4.17487 9.9272 3.49867 8.225 3.49867C6.52279 3.49867 4.8903 4.17487 3.68666 5.37851C2.48302 6.58215 1.80682 8.21464 1.80682 9.91684C1.80682 11.619 2.48302 13.2515 3.68666 14.4552L14 24.7685L24.3133 14.4552C24.9095 13.8593 25.3824 13.1518 25.7051 12.3731C26.0277 11.5944 26.1938 10.7597 26.1938 9.91684C26.1938 9.07394 26.0277 8.2393 25.7051 7.4606C25.3824 6.68189 24.9095 5.97439 24.3133 5.37851Z" stroke="white" stroke-opacity="0.8" stroke-width="2" stroke-linecap="round" stroke-linejoin="round"/>
</svg>
