<svg width="34" height="34" viewBox="0 0 34 34" fill="none" xmlns="http://www.w3.org/2000/svg">
<circle cx="17" cy="17" r="17" fill="#16122F"/>
<path d="M28.6666 17.0002C28.6666 23.4435 23.4433 28.6668 17 28.6668M28.6666 17.0002C28.6666 10.5568 23.4433 5.3335 17 5.3335M28.6666 17.0002H5.33331M17 28.6668C10.5567 28.6668 5.33331 23.4435 5.33331 17.0002M17 28.6668C19.9181 25.4721 21.5765 21.3261 21.6666 17.0002C21.5765 12.6742 19.9181 8.52824 17 5.3335M17 28.6668C14.0818 25.4721 12.4234 21.3261 12.3333 17.0002C12.4234 12.6742 14.0818 8.52824 17 5.3335M5.33331 17.0002C5.33331 10.5568 10.5567 5.3335 17 5.3335" stroke="#CECED6" stroke-width="2" stroke-linecap="round" stroke-linejoin="round"/>
</svg>
