<svg width="40" height="40" viewBox="0 0 40 40" fill="none" xmlns="http://www.w3.org/2000/svg">
<circle cx="20" cy="20" r="19" fill="#FF6F3A" stroke="#FF6F3A" stroke-width="2"/>
<path d="M12 27V25H14V18C14 16.6167 14.4167 15.3917 15.25 14.325C16.0833 13.2417 17.1667 12.5333 18.5 12.2V11.5C18.5 11.0833 18.6417 10.7333 18.925 10.45C19.225 10.15 19.5833 10 20 10C20.4167 10 20.7667 10.15 21.05 10.45C21.35 10.7333 21.5 11.0833 21.5 11.5V12.2C22.8333 12.5333 23.9167 13.2417 24.75 14.325C25.5833 15.3917 26 16.6167 26 18V25H28V27H12ZM20 30C19.45 30 18.975 29.8083 18.575 29.425C18.1917 29.025 18 28.55 18 28H22C22 28.55 21.8 29.025 21.4 29.425C21.0167 29.8083 20.55 30 20 30ZM16 25H24V18C24 16.9 23.6083 15.9583 22.825 15.175C22.0417 14.3917 21.1 14 20 14C18.9 14 17.9583 14.3917 17.175 15.175C16.3917 15.9583 16 16.9 16 18V25Z" fill="#CECED6"/>
</svg>
