<svg width="34" height="34" viewBox="0 0 34 34" fill="none" xmlns="http://www.w3.org/2000/svg">
<circle cx="17" cy="17" r="17" fill="#16122F"/>
<path d="M29 18.0533C28.7902 20.3229 27.9385 22.4859 26.5443 24.2891C25.1502 26.0922 23.2713 27.4611 21.1276 28.2354C18.9839 29.0097 16.664 29.1575 14.4393 28.6615C12.2147 28.1654 10.1773 27.0461 8.56562 25.4344C6.95393 23.8227 5.83458 21.7853 5.33853 19.5607C4.84249 17.336 4.99028 15.0161 5.7646 12.8724C6.53893 10.7287 7.90776 8.84982 9.71094 7.45567C11.5141 6.06152 13.6771 5.20974 15.9467 5C14.6179 6.79769 13.9785 9.0126 14.1447 11.2419C14.3109 13.4712 15.2718 15.5667 16.8525 17.1475C18.4332 18.7282 20.5288 19.689 22.7581 19.8553C24.9874 20.0215 27.2023 19.3821 29 18.0533Z" stroke="#CECED6" stroke-width="2" stroke-linecap="round" stroke-linejoin="round"/>
</svg>
